<svg xmlns="http://www.w3.org/2000/svg" width="628.501" height="229" viewBox="0 0 628.501 229"><defs><style>.a{fill:#11598b;opacity:0.5;}</style></defs><path class="a" d="M0,0V229s10.33-54.572,84.439-68.968c33.73-6.552,64.019.975,94.591,8.5,36.6,9.011,73.6,18.021,117.4,2.881,80.4-27.788,48.657-90.561,109.591-122.535,31.421-16.487,51.616-10.273,71.281-4.058,18.469,5.837,36.469,11.674,62.864-1.3,15.041-7.393,19.612-19.585,47.609-30.467S628.5,0,628.5,0ZM404.828,82.695c0,17.2,14.478,31.136,32.338,31.136S469.5,99.89,469.5,82.695s-14.478-31.136-32.338-31.136S404.828,65.5,404.828,82.695Z" transform="translate(628.501 229) rotate(180)"/></svg>